# 3ds Max Wavefront OBJ Exporter v0.97b - (c)2007 guruware
# File Created: 25.11.2015 10:46:57

#
# object Box001
#

v  -196.8504 0.0000 196.8504
v  196.8504 0.0000 196.8504
v  196.8504 0.0000 -196.8504
v  -196.8504 0.0000 -196.8504
v  -196.8504 -39.3701 196.8504
v  -196.8504 -39.3701 -196.8504
v  196.8504 -39.3701 -196.8504
v  196.8504 -39.3701 196.8504
v  -25.9865 354.3307 -25.7824
v  92.1237 354.3307 -25.7824
v  92.1237 354.3307 -143.8926
v  -25.9865 354.3307 -143.8926
v  -25.9865 0.0000 -25.7824
v  92.1237 0.0000 -25.7824
v  92.1237 0.0000 -143.8926
v  -25.9865 0.0000 -143.8926
v  10.6278 0.0000 65.8377
v  -4.7265 0.0000 39.2432
v  31.1003 157.4803 -22.8106
v  82.2814 157.4803 65.8377
v  -35.4352 0.0000 39.2432
v  -71.2619 157.4803 -22.8106
v  -50.7895 0.0000 65.8377
v  -122.4430 157.4803 65.8377
v  -35.4352 0.0000 92.4322
v  -71.2619 157.4803 154.4860
v  -4.7265 0.0000 92.4322
v  31.1003 157.4803 154.4860
# 28 vertices

vn 0.0000 1.0000 -0.0000
vn 0.0000 -1.0000 -0.0000
vn 0.0000 0.0000 1.0000
vn 1.0000 0.0000 -0.0000
vn 0.0000 0.0000 -1.0000
vn -1.0000 0.0000 -0.0000
vn 0.8057 -0.3666 -0.4652
vn -0.0000 -0.3666 -0.9304
vn -0.8057 -0.3666 -0.4652
vn -0.8057 -0.3666 0.4652
vn 0.0000 -0.3666 0.9304
vn 0.8057 -0.3666 0.4652
# 12 vertex normals

vt 0.0144 0.9926 0.0000
vt 0.0144 0.2517 0.0000
vt 0.7553 0.2517 0.0000
vt 0.7553 0.9926 0.0000
vt 0.9722 0.0475 0.0000
vt 0.9293 0.0475 0.0000
vt 0.9293 0.0046 0.0000
vt 0.9722 0.0046 0.0000
vt 0.6184 0.0368 0.0000
vt 0.6184 0.0062 0.0000
vt 0.9244 0.0062 0.0000
vt 0.9244 0.0368 0.0000
vt 0.0063 0.0695 0.0000
vt 0.0063 0.0389 0.0000
vt 0.3123 0.0389 0.0000
vt 0.3123 0.0695 0.0000
vt 0.0064 0.0368 0.0000
vt 0.0064 0.0062 0.0000
vt 0.3124 0.0062 0.0000
vt 0.3124 0.0368 0.0000
vt 0.3099 0.2342 0.0000
vt 0.2107 0.2342 0.0000
vt 0.2107 0.1351 0.0000
vt 0.3099 0.1351 0.0000
vt 0.3223 0.2273 0.0000
vt 0.3219 0.1355 0.0000
vt 0.5973 0.1344 0.0000
vt 0.5977 0.2262 0.0000
vt 0.3215 0.0437 0.0000
vt 0.5969 0.0426 0.0000
vt 0.6058 0.2267 0.0000
vt 0.6054 0.1349 0.0000
vt 0.8808 0.1337 0.0000
vt 0.8812 0.2255 0.0000
vt 0.6050 0.0431 0.0000
vt 0.8804 0.0419 0.0000
vt 0.8771 0.5984 0.0000
vt 0.9093 0.5983 0.0000
vt 0.9850 0.7887 0.0000
vt 0.8777 0.7890 0.0000
vt 0.8652 0.5892 0.0000
vt 0.8230 0.5901 0.0000
vt 0.7691 0.3747 0.0000
vt 0.9098 0.3717 0.0000
vt 0.9100 0.9933 0.0000
vt 0.8778 0.9936 0.0000
vt 0.8759 0.8029 0.0000
vt 0.9833 0.8019 0.0000
vt 0.8456 0.9939 0.0000
vt 0.7686 0.8040 0.0000
vt 0.9037 0.1458 0.0000
vt 0.9459 0.1452 0.0000
vt 0.9978 0.3611 0.0000
vt 0.8571 0.3628 0.0000
vt 0.8449 0.5985 0.0000
vt 0.7703 0.7893 0.0000
vt 0.1550 0.2413 0.0000
vt 0.0611 0.2403 0.0000
vt 0.0150 0.1585 0.0000
vt 0.1566 0.0787 0.0000
vt 0.0628 0.0777 0.0000
vt 0.2027 0.1604 0.0000
# 62 texture coords

g Box001
s 2
f 1/1/1 2/2/1 3/3/1 4/4/1 
s 4
f 5/5/2 6/6/2 7/7/2 8/8/2 
s 8
f 1/9/3 5/10/3 8/11/3 2/12/3 
s 16
f 2/13/4 8/14/4 7/15/4 3/16/4 
s 32
f 3/17/5 7/18/5 6/19/5 4/20/5 
s 64
f 4/20/6 6/19/6 5/10/6 1/9/6 
s 4
f 9/21/1 10/22/1 11/23/1 12/24/1 
s 8
f 13/25/3 14/26/3 10/27/3 9/28/3 
s 16
f 14/26/4 15/29/4 11/30/4 10/27/4 
s 32
f 15/31/5 16/32/5 12/33/5 11/34/5 
s 64
f 16/32/6 13/35/6 9/36/6 12/33/6 
s off
f 17/37/7 18/38/7 19/39/7 20/40/7 
f 18/41/8 21/42/8 22/43/8 19/44/8 
f 21/45/9 23/46/9 24/47/9 22/48/9 
f 23/46/10 25/49/10 26/50/10 24/47/10 
f 25/51/11 27/52/11 28/53/11 26/54/11 
f 27/55/12 17/37/12 20/40/12 28/56/12 
f 19/57/1 22/58/1 24/59/1 28/60/1 
f 24/59/1 26/61/1 28/60/1 
f 20/62/1 19/57/1 28/60/1 
# 18 polygons - 2 triangles

